{"accessors" : [{"bufferView" : 0, "byteOffset" : 0, "componentType" : 5126, "normalized" : false, "count" : 49, "type" : "SCALAR", "max" : [2], "min" : [0]}, {"bufferView" : 1, "componentType" : 5126, "count" : 49, "type" : "VEC3"}, {"bufferView" : 2, "byteOffset" : 0, "componentType" : 5126, "normalized" : false, "count" : 49, "type" : "SCALAR", "max" : [2], "min" : [0]}, {"bufferView" : 3, "componentType" : 5126, "count" : 49, "type" : "VEC4"}, {"bufferView" : 4, "byteOffset" : 0, "componentType" : 5126, "normalized" : false, "count" : 49, "type" : "SCALAR", "max" : [2], "min" : [0]}, {"bufferView" : 5, "componentType" : 5126, "count" : 49, "type" : "VEC4"}, {"bufferView" : 6, "byteOffset" : 0, "componentType" : 5126, "normalized" : false, "count" : 49, "type" : "SCALAR", "max" : [2], "min" : [0]}, {"bufferView" : 7, "componentType" : 5126, "count" : 49, "type" : "VEC4"}, {"bufferView" : 8, "byteOffset" : 0, "componentType" : 5126, "normalized" : false, "count" : 49, "type" : "SCALAR", "max" : [2], "min" : [0]}, {"bufferView" : 9, "componentType" : 5126, "count" : 49, "type" : "VEC4"}, {"bufferView" : 10, "byteOffset" : 0, "componentType" : 5126, "normalized" : false, "count" : 49, "type" : "SCALAR", "max" : [2], "min" : [0]}, {"bufferView" : 11, "componentType" : 5126, "count" : 49, "type" : "VEC4"}, {"bufferView" : 12, "byteOffset" : 0, "componentType" : 5126, "normalized" : false, "count" : 49, "type" : "SCALAR", "max" : [2], "min" : [0]}, {"bufferView" : 13, "componentType" : 5126, "count" : 49, "type" : "VEC4"}, {"bufferView" : 14, "byteOffset" : 0, "componentType" : 5126, "normalized" : false, "count" : 49, "type" : "SCALAR", "max" : [2], "min" : [0]}, {"bufferView" : 15, "componentType" : 5126, "count" : 49, "type" : "VEC4"}, {"bufferView" : 16, "byteOffset" : 0, "componentType" : 5126, "normalized" : false, "count" : 49, "type" : "SCALAR", "max" : [2], "min" : [0]}, {"bufferView" : 17, "componentType" : 5126, "count" : 49, "type" : "VEC4"}, {"bufferView" : 18, "byteOffset" : 0, "componentType" : 5126, "normalized" : false, "count" : 49, "type" : "SCALAR", "max" : [2], "min" : [0]}, {"bufferView" : 19, "componentType" : 5126, "count" : 49, "type" : "VEC4"}, {"bufferView" : 20, "byteOffset" : 0, "componentType" : 5126, "normalized" : false, "count" : 49, "type" : "SCALAR", "max" : [2], "min" : [0]}, {"bufferView" : 21, "componentType" : 5126, "count" : 49, "type" : "VEC4"}, {"bufferView" : 22, "byteOffset" : 0, "componentType" : 5126, "normalized" : false, "count" : 49, "type" : "SCALAR", "max" : [2], "min" : [0]}, {"bufferView" : 23, "componentType" : 5126, "count" : 49, "type" : "VEC4"}, {"bufferView" : 24, "byteOffset" : 0, "componentType" : 5126, "normalized" : false, "count" : 49, "type" : "SCALAR", "max" : [2], "min" : [0]}, {"bufferView" : 25, "componentType" : 5126, "count" : 49, "type" : "VEC4"}, {"bufferView" : 26, "byteOffset" : 0, "componentType" : 5126, "normalized" : false, "count" : 49, "type" : "SCALAR", "max" : [2], "min" : [0]}, {"bufferView" : 27, "componentType" : 5126, "count" : 49, "type" : "VEC4"}, {"bufferView" : 28, "byteOffset" : 0, "componentType" : 5126, "normalized" : false, "count" : 49, "type" : "SCALAR", "max" : [2], "min" : [0]}, {"bufferView" : 29, "componentType" : 5126, "count" : 49, "type" : "VEC4"}, {"bufferView" : 30, "byteOffset" : 0, "componentType" : 5126, "normalized" : false, "count" : 49, "type" : "SCALAR", "max" : [2], "min" : [0]}, {"bufferView" : 31, "componentType" : 5126, "count" : 49, "type" : "VEC4"}, {"bufferView" : 32, "byteOffset" : 0, "componentType" : 5126, "normalized" : false, "count" : 49, "type" : "SCALAR", "max" : [2], "min" : [0]}, {"bufferView" : 33, "componentType" : 5126, "count" : 49, "type" : "VEC4"}, {"bufferView" : 34, "byteOffset" : 0, "componentType" : 5126, "normalized" : false, "count" : 49, "type" : "SCALAR", "max" : [2], "min" : [0]}, {"bufferView" : 35, "componentType" : 5126, "count" : 49, "type" : "VEC4"}, {"bufferView" : 36, "byteOffset" : 0, "componentType" : 5126, "normalized" : false, "count" : 49, "type" : "SCALAR", "max" : [2], "min" : [0]}, {"bufferView" : 37, "componentType" : 5126, "count" : 49, "type" : "VEC4"}, {"bufferView" : 38, "byteOffset" : 0, "componentType" : 5126, "normalized" : false, "count" : 49, "type" : "SCALAR", "max" : [2], "min" : [0]}, {"bufferView" : 39, "componentType" : 5126, "count" : 49, "type" : "VEC4"}, {"bufferView" : 40, "byteOffset" : 0, "componentType" : 5126, "normalized" : false, "count" : 49, "type" : "SCALAR", "max" : [2], "min" : [0]}, {"bufferView" : 41, "componentType" : 5126, "count" : 49, "type" : "VEC4"}, {"bufferView" : 42, "byteOffset" : 0, "componentType" : 5126, "normalized" : false, "count" : 49, "type" : "SCALAR", "max" : [2], "min" : [0]}, {"bufferView" : 43, "componentType" : 5126, "count" : 49, "type" : "VEC4"}, {"bufferView" : 44, "byteOffset" : 0, "componentType" : 5126, "normalized" : false, "count" : 49, "type" : "SCALAR", "max" : [2], "min" : [0]}, {"bufferView" : 45, "componentType" : 5126, "count" : 49, "type" : "VEC4"}, {"bufferView" : 46, "byteOffset" : 0, "componentType" : 5126, "normalized" : false, "count" : 49, "type" : "SCALAR", "max" : [2], "min" : [0]}, {"bufferView" : 47, "componentType" : 5126, "count" : 49, "type" : "VEC4"}, {"bufferView" : 48, "byteOffset" : 0, "componentType" : 5126, "normalized" : false, "count" : 49, "type" : "SCALAR", "max" : [2], "min" : [0]}, {"bufferView" : 49, "componentType" : 5126, "count" : 49, "type" : "VEC4"}, {"bufferView" : 50, "byteOffset" : 0, "componentType" : 5126, "normalized" : false, "count" : 49, "type" : "SCALAR", "max" : [2], "min" : [0]}, {"bufferView" : 51, "componentType" : 5126, "count" : 49, "type" : "VEC4"}, {"bufferView" : 52, "byteOffset" : 0, "componentType" : 5126, "normalized" : false, "count" : 49, "type" : "SCALAR", "max" : [2], "min" : [0]}, {"bufferView" : 53, "componentType" : 5126, "count" : 49, "type" : "VEC4"}, {"bufferView" : 54, "byteOffset" : 0, "componentType" : 5126, "normalized" : false, "count" : 49, "type" : "SCALAR", "max" : [2], "min" : [0]}, {"bufferView" : 55, "componentType" : 5126, "count" : 49, "type" : "VEC4"}, {"bufferView" : 56, "byteOffset" : 0, "componentType" : 5126, "normalized" : false, "count" : 49, "type" : "SCALAR", "max" : [2], "min" : [0]}, {"bufferView" : 57, "componentType" : 5126, "count" : 49, "type" : "VEC4"}, {"bufferView" : 58, "byteOffset" : 0, "componentType" : 5126, "normalized" : false, "count" : 49, "type" : "SCALAR", "max" : [2], "min" : [0]}, {"bufferView" : 59, "componentType" : 5126, "count" : 49, "type" : "VEC4"}, {"bufferView" : 60, "byteOffset" : 0, "componentType" : 5126, "normalized" : false, "count" : 49, "type" : "SCALAR", "max" : [2], "min" : [0]}, {"bufferView" : 61, "componentType" : 5126, "count" : 49, "type" : "VEC4"}, {"bufferView" : 62, "byteOffset" : 0, "componentType" : 5126, "normalized" : false, "count" : 49, "type" : "SCALAR", "max" : [2], "min" : [0]}, {"bufferView" : 63, "componentType" : 5126, "count" : 49, "type" : "VEC4"}, {"bufferView" : 64, "byteOffset" : 0, "componentType" : 5126, "normalized" : false, "count" : 49, "type" : "SCALAR", "max" : [2], "min" : [0]}, {"bufferView" : 65, "componentType" : 5126, "count" : 49, "type" : "VEC4"}, {"bufferView" : 66, "byteOffset" : 0, "componentType" : 5126, "normalized" : false, "count" : 49, "type" : "SCALAR", "max" : [2], "min" : [0]}, {"bufferView" : 67, "componentType" : 5126, "count" : 49, "type" : "VEC4"}, {"bufferView" : 68, "byteOffset" : 0, "componentType" : 5126, "normalized" : false, "count" : 49, "type" : "SCALAR", "max" : [2], "min" : [0]}, {"bufferView" : 69, "componentType" : 5126, "count" : 49, "type" : "VEC4"}], "animations" : [{"channels" : [{"sampler" : 0, "target" : {"node" : 0, "path" : "translation"}}, {"sampler" : 1, "target" : {"node" : 0, "path" : "rotation"}}, {"sampler" : 2, "target" : {"node" : 1, "path" : "rotation"}}, {"sampler" : 3, "target" : {"node" : 2, "path" : "rotation"}}, {"sampler" : 4, "target" : {"node" : 3, "path" : "rotation"}}, {"sampler" : 5, "target" : {"node" : 4, "path" : "rotation"}}, {"sampler" : 6, "target" : {"node" : 5, "path" : "rotation"}}, {"sampler" : 7, "target" : {"node" : 6, "path" : "rotation"}}, {"sampler" : 8, "target" : {"node" : 7, "path" : "rotation"}}, {"sampler" : 9, "target" : {"node" : 8, "path" : "rotation"}}, {"sampler" : 10, "target" : {"node" : 9, "path" : "rotation"}}, {"sampler" : 11, "target" : {"node" : 10, "path" : "rotation"}}, {"sampler" : 12, "target" : {"node" : 11, "path" : "rotation"}}, {"sampler" : 13, "target" : {"node" : 12, "path" : "rotation"}}, {"sampler" : 14, "target" : {"node" : 13, "path" : "rotation"}}, {"sampler" : 15, "target" : {"node" : 14, "path" : "rotation"}}, {"sampler" : 16, "target" : {"node" : 15, "path" : "rotation"}}, {"sampler" : 17, "target" : {"node" : 16, "path" : "rotation"}}, {"sampler" : 18, "target" : {"node" : 17, "path" : "rotation"}}, {"sampler" : 19, "target" : {"node" : 18, "path" : "rotation"}}, {"sampler" : 20, "target" : {"node" : 19, "path" : "rotation"}}, {"sampler" : 21, "target" : {"node" : 20, "path" : "rotation"}}, {"sampler" : 22, "target" : {"node" : 21, "path" : "rotation"}}, {"sampler" : 23, "target" : {"node" : 22, "path" : "rotation"}}, {"sampler" : 24, "target" : {"node" : 23, "path" : "rotation"}}, {"sampler" : 25, "target" : {"node" : 24, "path" : "rotation"}}, {"sampler" : 26, "target" : {"node" : 25, "path" : "rotation"}}, {"sampler" : 27, "target" : {"node" : 26, "path" : "rotation"}}, {"sampler" : 28, "target" : {"node" : 27, "path" : "rotation"}}, {"sampler" : 29, "target" : {"node" : 28, "path" : "rotation"}}, {"sampler" : 30, "target" : {"node" : 29, "path" : "rotation"}}, {"sampler" : 31, "target" : {"node" : 30, "path" : "rotation"}}, {"sampler" : 32, "target" : {"node" : 31, "path" : "rotation"}}, {"sampler" : 33, "target" : {"node" : 32, "path" : "rotation"}}, {"sampler" : 34, "target" : {"node" : 33, "path" : "rotation"}}], "samplers" : [{"input" : 0, "interpolation" : "LINEAR", "output" : 1}, {"input" : 2, "interpolation" : "LINEAR", "output" : 3}, {"input" : 4, "interpolation" : "LINEAR", "output" : 5}, {"input" : 6, "interpolation" : "LINEAR", "output" : 7}, {"input" : 8, "interpolation" : "LINEAR", "output" : 9}, {"input" : 10, "interpolation" : "LINEAR", "output" : 11}, {"input" : 12, "interpolation" : "LINEAR", "output" : 13}, {"input" : 14, "interpolation" : "LINEAR", "output" : 15}, {"input" : 16, "interpolation" : "LINEAR", "output" : 17}, {"input" : 18, "interpolation" : "LINEAR", "output" : 19}, {"input" : 20, "interpolation" : "LINEAR", "output" : 21}, {"input" : 22, "interpolation" : "LINEAR", "output" : 23}, {"input" : 24, "interpolation" : "LINEAR", "output" : 25}, {"input" : 26, "interpolation" : "LINEAR", "output" : 27}, {"input" : 28, "interpolation" : "LINEAR", "output" : 29}, {"input" : 30, "interpolation" : "LINEAR", "output" : 31}, {"input" : 32, "interpolation" : "LINEAR", "output" : 33}, {"input" : 34, "interpolation" : "LINEAR", "output" : 35}, {"input" : 36, "interpolation" : "LINEAR", "output" : 37}, {"input" : 38, "interpolation" : "LINEAR", "output" : 39}, {"input" : 40, "interpolation" : "LINEAR", "output" : 41}, {"input" : 42, "interpolation" : "LINEAR", "output" : 43}, {"input" : 44, "interpolation" : "LINEAR", "output" : 45}, {"input" : 46, "interpolation" : "LINEAR", "output" : 47}, {"input" : 48, "interpolation" : "LINEAR", "output" : 49}, {"input" : 50, "interpolation" : "LINEAR", "output" : 51}, {"input" : 52, "interpolation" : "LINEAR", "output" : 53}, {"input" : 54, "interpolation" : "LINEAR", "output" : 55}, {"input" : 56, "interpolation" : "LINEAR", "output" : 57}, {"input" : 58, "interpolation" : "LINEAR", "output" : 59}, {"input" : 60, "interpolation" : "LINEAR", "output" : 61}, {"input" : 62, "interpolation" : "LINEAR", "output" : 63}, {"input" : 64, "interpolation" : "LINEAR", "output" : 65}, {"input" : 66, "interpolation" : "LINEAR", "output" : 67}, {"input" : 68, "interpolation" : "LINEAR", "output" : 69}], "name" : "mixamo.com"}], "asset" : {"generator" : "Aspose.3D 25.11.0", "version" : "2.0"}, "buffers" : [{"uri" : "data:application/octet-stream;base64,", "byteLength" : 34384}], "bufferViews" : [{"buffer" : 0, "byteOffset" : 0, "byteLength" : 196}, {"buffer" : 0, "byteOffset" : 200, "byteLength" : 588}, {"buffer" : 0, "byteOffset" : 792, "byteLength" : 196}, {"buffer" : 0, "byteOffset" : 992, "byteLength" : 784}, {"buffer" : 0, "byteOffset" : 1780, "byteLength" : 196}, {"buffer" : 0, "byteOffset" : 1980, "byteLength" : 784}, {"buffer" : 0, "byteOffset" : 2768, "byteLength" : 196}, {"buffer" : 0, "byteOffset" : 2968, "byteLength" : 784}, {"buffer" : 0, "byteOffset" : 3756, "byteLength" : 196}, {"buffer" : 0, "byteOffset" : 3956, "byteLength" : 784}, {"buffer" : 0, "byteOffset" : 4744, "byteLength" : 196}, {"buffer" : 0, "byteOffset" : 4944, "byteLength" : 784}, {"buffer" : 0, "byteOffset" : 5732, "byteLength" : 196}, {"buffer" : 0, "byteOffset" : 5932, "byteLength" : 784}, {"buffer" : 0, "byteOffset" : 6720, "byteLength" : 196}, {"buffer" : 0, "byteOffset" : 6920, "byteLength" : 784}, {"buffer" : 0, "byteOffset" : 7708, "byteLength" : 196}, {"buffer" : 0, "byteOffset" : 7908, "byteLength" : 784}, {"buffer" : 0, "byteOffset" : 8696, "byteLength" : 196}, {"buffer" : 0, "byteOffset" : 8896, "byteLength" : 784}, {"buffer" : 0, "byteOffset" : 9684, "byteLength" : 196}, {"buffer" : 0, "byteOffset" : 9884, "byteLength" : 784}, {"buffer" : 0, "byteOffset" : 10672, "byteLength" : 196}, {"buffer" : 0, "byteOffset" : 10872, "byteLength" : 784}, {"buffer" : 0, "byteOffset" : 11660, "byteLength" : 196}, {"buffer" : 0, "byteOffset" : 11860, "byteLength" : 784}, {"buffer" : 0, "byteOffset" : 12648, "byteLength" : 196}, {"buffer" : 0, "byteOffset" : 12848, "byteLength" : 784}, {"buffer" : 0, "byteOffset" : 13636, "byteLength" : 196}, {"buffer" : 0, "byteOffset" : 13836, "byteLength" : 784}, {"buffer" : 0, "byteOffset" : 14624, "byteLength" : 196}, {"buffer" : 0, "byteOffset" : 14824, "byteLength" : 784}, {"buffer" : 0, "byteOffset" : 15612, "byteLength" : 196}, {"buffer" : 0, "byteOffset" : 15812, "byteLength" : 784}, {"buffer" : 0, "byteOffset" : 16600, "byteLength" : 196}, {"buffer" : 0, "byteOffset" : 16800, "byteLength" : 784}, {"buffer" : 0, "byteOffset" : 17588, "byteLength" : 196}, {"buffer" : 0, "byteOffset" : 17788, "byteLength" : 784}, {"buffer" : 0, "byteOffset" : 18576, "byteLength" : 196}, {"buffer" : 0, "byteOffset" : 18776, "byteLength" : 784}, {"buffer" : 0, "byteOffset" : 19564, "byteLength" : 196}, {"buffer" : 0, "byteOffset" : 19764, "byteLength" : 784}, {"buffer" : 0, "byteOffset" : 20552, "byteLength" : 196}, {"buffer" : 0, "byteOffset" : 20752, "byteLength" : 784}, {"buffer" : 0, "byteOffset" : 21540, "byteLength" : 196}, {"buffer" : 0, "byteOffset" : 21740, "byteLength" : 784}, {"buffer" : 0, "byteOffset" : 22528, "byteLength" : 196}, {"buffer" : 0, "byteOffset" : 22728, "byteLength" : 784}, {"buffer" : 0, "byteOffset" : 23516, "byteLength" : 196}, {"buffer" : 0, "byteOffset" : 23716, "byteLength" : 784}, {"buffer" : 0, "byteOffset" : 24504, "byteLength" : 196}, {"buffer" : 0, "byteOffset" : 24704, "byteLength" : 784}, {"buffer" : 0, "byteOffset" : 25492, "byteLength" : 196}, {"buffer" : 0, "byteOffset" : 25692, "byteLength" : 784}, {"buffer" : 0, "byteOffset" : 26480, "byteLength" : 196}, {"buffer" : 0, "byteOffset" : 26680, "byteLength" : 784}, {"buffer" : 0, "byteOffset" : 27468, "byteLength" : 196}, {"buffer" : 0, "byteOffset" : 27668, "byteLength" : 784}, {"buffer" : 0, "byteOffset" : 28456, "byteLength" : 196}, {"buffer" : 0, "byteOffset" : 28656, "byteLength" : 784}, {"buffer" : 0, "byteOffset" : 29444, "byteLength" : 196}, {"buffer" : 0, "byteOffset" : 29644, "byteLength" : 784}, {"buffer" : 0, "byteOffset" : 30432, "byteLength" : 196}, {"buffer" : 0, "byteOffset" : 30632, "byteLength" : 784}, {"buffer" : 0, "byteOffset" : 31420, "byteLength" : 196}, {"buffer" : 0, "byteOffset" : 31620, "byteLength" : 784}, {"buffer" : 0, "byteOffset" : 32408, "byteLength" : 196}, {"buffer" : 0, "byteOffset" : 32608, "byteLength" : 784}, {"buffer" : 0, "byteOffset" : 33396, "byteLength" : 196}, {"buffer" : 0, "byteOffset" : 33596, "byteLength" : 784}], "nodes" : [{"rotation" : [0, 0, 0, 1], "scale" : [1, 1, 1], "translation" : [0, 488.09389771048683, 0], "name" : "mixamorig:Hips"}, {"rotation" : [0.01992859538938458, 0, 0, 0.9998014058230795], "scale" : [1, 1, 1], "translation" : [0, 42.1649, 1.6816], "name" : "mixamorig:Spine"}, {"rotation" : [0, 0, 0, 1], "scale" : [1, 1, 1], "translation" : [0, 49.2314, 0], "name" : "mixamorig:Spine1"}, {"rotation" : [0, 0, 0, 1], "scale" : [1, 1, 1], "translation" : [0, 56.2644, 0], "name" : "mixamorig:Spine2"}, {"rotation" : [-0.01992859538938458, 0, 0, 0.9998014058230795], "scale" : [1, 1, 1], "translation" : [0, 63.2975, -0], "name" : "mixamorig:Neck"}, {"rotation" : [0, 0, 0, 1], "scale" : [1, 1, 1], "translation" : [0, 25.7672, 0.5364], "name" : "mixamorig:Head"}, {"rotation" : [0.567925492749994, 0.43067221259222227, -0.5540111867093882, 0.43017866635440133], "scale" : [1, 1, 1], "translation" : [21.326, 53.0455, 0.5001], "name" : "mixamorig:LeftShoulder"}, {"rotation" : [-0.12791270393444257, -0.14632296731864305, 0.011483971541993862, 0.980864948810421], "scale" : [1, 1, 1], "translation" : [0, 50.6298, 0], "name" : "mixamorig:LeftArm"}, {"rotation" : [-0.00017569290876086818, -0.0015827390131635363, -4.1071834209564694E-07, 0.9999987320337209], "scale" : [1, 1, 1], "translation" : [0, 95.1225, 0], "name" : "mixamorig:LeftForeArm"}, {"rotation" : [0.00017407420939641416, 0.3209963926900683, 5.3898723320558103E-05, 0.9470803992655854], "scale" : [1, 1, 1], "translation" : [0, 115.8912, 0], "name" : "mixamorig:LeftHand"}, {"rotation" : [0.12166022682496044, 0.023421923508039736, 0.19586626664958862, 0.972772639570437], "scale" : [1, 1, 1], "translation" : [-12.9379, 19.0948, 4.7864], "name" : "mixamorig:LeftHandThumb1"}, {"rotation" : [0.005517589196759237, -0.016694770747760795, 0.1387098801206272, 0.9901769589300978], "scale" : [1, 1, 1], "translation" : [-4.5291, 18.2929, -0], "name" : "mixamorig:LeftHandThumb2"}, {"rotation" : [-0.003738607654909784, -0.010736292020945268, 0.09435395130226573, 0.9954738001173579], "scale" : [1, 1, 1], "translation" : [0.706, 19.9404, 0], "name" : "mixamorig:LeftHandThumb3"}, {"rotation" : [8.454866784733411E-05, -0.00154365426455853, 0.0018037575516654325, 0.9999971782168835], "scale" : [1, 1, 1], "translation" : [0, 51.1191, 0.0054], "name" : "mixamorig:LeftHandIndex1"}, {"rotation" : [1.599744952179849E-05, 0.0007373670888719745, 0.005763006873899395, 0.999983121750377], "scale" : [1, 1, 1], "translation" : [0.07060000000000001, 19.5705, 0], "name" : "mixamorig:LeftHandIndex2"}, {"rotation" : [-3.724626013695831E-05, 0.0001770033739520718, -0.018892628035762467, 0.9998215020134466], "scale" : [1, 1, 1], "translation" : [0.28040000000000004, 18.527, 0], "name" : "mixamorig:LeftHandIndex3"}, {"rotation" : [0.5640245114949283, -0.43105833104877767, 0.5572379428061083, 0.4307562428608162], "scale" : [1, 1, 1], "translation" : [-21.326, 53.0383, 0.3179], "name" : "mixamorig:RightShoulder"}, {"rotation" : [-0.1271019170071417, 0.15621169842553678, -0.016780739592135455, 0.9793678648734907], "scale" : [1, 1, 1], "translation" : [0, 50.6298, 0], "name" : "mixamorig:RightArm"}, {"rotation" : [-0.00014264251319408297, 0.001287826049001133, 2.713634636812421E-07, 0.9999991605782014], "scale" : [1, 1, 1], "translation" : [0, 95.1964, 0], "name" : "mixamorig:RightForeArm"}, {"rotation" : [-0.0030631500807628675, -0.3531775923900741, 0.000621718215378713, 0.9355510776069867], "scale" : [1, 1, 1], "translation" : [-0, 116.0739, 0], "name" : "mixamorig:RightHand"}, {"rotation" : [0.10683717292350192, -0.02149996614671401, -0.21241050029494585, 0.9710846252010457], "scale" : [1, 1, 1], "translation" : [12.5671, 18.3125, 4.0965], "name" : "mixamorig:RightHandThumb1"}, {"rotation" : [0.0036258234305932002, 0.01764484971909571, -0.10579565837259483, 0.9942247187393554], "scale" : [1, 1, 1], "translation" : [3.9403, 17.6327, 0], "name" : "mixamorig:RightHandThumb2"}, {"rotation" : [-0.00014470082755996348, 0.0003081820390773776, -0.11865499500344777, 0.9929354844330188], "scale" : [1, 1, 1], "translation" : [0.1607, 20.3261, 0], "name" : "mixamorig:RightHandThumb3"}, {"rotation" : [-6.224293004387121E-05, -0.00481984243607192, -0.014666557531793235, 0.9998808215656884], "scale" : [1, 1, 1], "translation" : [-0, 50.0917, -0.012], "name" : "mixamorig:RightHandIndex1"}, {"rotation" : [6.708217783163439E-05, -0.0022492559650554357, -0.0004107665509209028, 0.9999973838057908], "scale" : [1, 1, 1], "translation" : [-0.5754, 19.6087, 0], "name" : "mixamorig:RightHandIndex2"}, {"rotation" : [0.00037357169948579877, 0.00118534482220802, 0.05284758727338814, 0.9986018165020628], "scale" : [1, 1, 1], "translation" : [-0.5646, 18.7162, 0], "name" : "mixamorig:RightHandIndex3"}, {"rotation" : [5.388002772745582E-05, 0.02234565176476377, -0.9997272126780353, -0.006794790295263191], "scale" : [1, 1, 1], "translation" : [35.4948, -23.4675, 0.5425], "name" : "mixamorig:LeftUpLeg"}, {"rotation" : [0.0019065934576481863, 2.6023708592728515E-05, 0.01364802620228349, 0.9999050432940798], "scale" : [1, 1, 1], "translation" : [-0, 216.9646, 0], "name" : "mixamorig:LeftLeg"}, {"rotation" : [0.5024559662951443, 0.11196422717313456, -0.007793842036543644, 0.8572871571382865], "scale" : [1, 1, 1], "translation" : [0, 210.3049, 0], "name" : "mixamorig:LeftFoot"}, {"rotation" : [0.279622492463603, -0.09514106497019979, 0.027857789238129815, 0.9549782107689907], "scale" : [1, 1, 1], "translation" : [-0, 60.7555, -0], "name" : "mixamorig:LeftToeBase"}, {"rotation" : [5.8564543104263483E-05, -0.024162474112558747, 0.9996848652908925, -0.006807460854398074], "scale" : [1, 1, 1], "translation" : [-35.4948, -23.4675, 1.1802], "name" : "mixamorig:RightUpLeg"}, {"rotation" : [0.00639860810475209, -8.747628629634866E-05, -0.013669585701101238, 0.9998860898067248], "scale" : [1, 1, 1], "translation" : [0, 216.9959, 0], "name" : "mixamorig:RightLeg"}, {"rotation" : [0.49811163393466934, -0.11323893805105475, 0.007970505851085321, 0.8596500532684688], "scale" : [1, 1, 1], "translation" : [-0, 210.2642, 0], "name" : "mixamorig:RightFoot"}, {"rotation" : [0.2817644250586328, 0.09673153440376361, -0.028564692567007867, 0.9541676358805219], "scale" : [1, 1, 1], "translation" : [0, 60.3217, 0], "name" : "mixamorig:RightToeBase"}], "scene" : 0, "scenes" : [{}]}